<svg xmlns="http://www.w3.org/2000/svg" xmlns:xlink="http://www.w3.org/1999/xlink" width="500" zoomAndPan="magnify" viewBox="0 0 375 374.999991" height="500" preserveAspectRatio="xMidYMid meet" version="1.0"><defs><clipPath id="2db8f1cf60"><path d="M 29.371094 12.042969 L 345.871094 12.042969 L 345.871094 363 L 29.371094 363 Z M 29.371094 12.042969 " clip-rule="nonzero"/></clipPath><clipPath id="2bf055879f"><path d="M 87.5 258.859375 L 110.75 258.859375 L 110.75 282.109375 L 87.5 282.109375 Z M 87.5 258.859375 " clip-rule="nonzero"/></clipPath></defs><g clip-path="url(#2db8f1cf60)"><path fill="#f4f6e7" d="M 308.632812 263.859375 L 307.269531 265.175781 C 281.109375 290.347656 245.824219 305.378906 212.882812 305.378906 C 145.140625 305.378906 92.078125 252.964844 92.078125 186.050781 C 92.078125 119.410156 145.140625 67.210938 212.882812 67.210938 C 246.933594 67.210938 282.1875 83.308594 307.195312 110.28125 L 308.632812 111.832031 L 344.832031 66.714844 L 343.65625 65.558594 C 309.65625 32.042969 260.40625 12.042969 211.90625 12.042969 C 162.265625 12.042969 116.25 29.886719 82.316406 62.273438 C 48.300781 94.746094 29.574219 138.867188 29.574219 186.527344 C 29.574219 234.683594 48.078125 279.28125 81.683594 312.113281 C 115.246094 344.914062 160.796875 362.96875 209.9375 362.96875 C 257.808594 362.96875 307.984375 341.6875 344.148438 306.039062 L 345.390625 304.8125 Z M 308.632812 263.859375 " fill-opacity="1" fill-rule="nonzero"/></g><path fill="#f4f6e7" d="M 277.367188 187.503906 C 277.367188 188.546875 277.339844 189.585938 277.289062 190.628906 C 277.238281 191.667969 277.164062 192.707031 277.0625 193.742188 C 276.957031 194.777344 276.832031 195.8125 276.679688 196.839844 C 276.527344 197.871094 276.347656 198.894531 276.144531 199.917969 C 275.941406 200.9375 275.714844 201.953125 275.460938 202.964844 C 275.207031 203.972656 274.929688 204.976562 274.628906 205.972656 C 274.324219 206.96875 274 207.957031 273.648438 208.9375 C 273.296875 209.917969 272.921875 210.890625 272.523438 211.851562 C 272.125 212.816406 271.703125 213.765625 271.257812 214.707031 C 270.8125 215.648438 270.34375 216.578125 269.855469 217.496094 C 269.363281 218.414062 268.851562 219.320312 268.316406 220.214844 C 267.78125 221.105469 267.222656 221.984375 266.644531 222.851562 C 266.066406 223.71875 265.46875 224.570312 264.847656 225.40625 C 264.226562 226.242188 263.585938 227.0625 262.925781 227.867188 C 262.265625 228.671875 261.585938 229.460938 260.886719 230.230469 C 260.1875 231.003906 259.46875 231.757812 258.734375 232.492188 C 257.996094 233.230469 257.242188 233.945312 256.472656 234.644531 C 255.699219 235.34375 254.910156 236.023438 254.105469 236.6875 C 253.300781 237.347656 252.480469 237.988281 251.644531 238.605469 C 250.808594 239.226562 249.957031 239.828125 249.09375 240.40625 C 248.226562 240.984375 247.347656 241.539062 246.453125 242.074219 C 245.5625 242.609375 244.65625 243.125 243.738281 243.613281 C 242.820312 244.105469 241.886719 244.574219 240.949219 245.019531 C 240.007812 245.464844 239.054688 245.886719 238.09375 246.285156 C 237.128906 246.683594 236.160156 247.058594 235.179688 247.40625 C 234.199219 247.757812 233.210938 248.085938 232.214844 248.386719 C 231.21875 248.691406 230.214844 248.96875 229.203125 249.21875 C 228.195312 249.472656 227.179688 249.703125 226.15625 249.90625 C 225.136719 250.109375 224.109375 250.285156 223.082031 250.4375 C 222.050781 250.589844 221.019531 250.71875 219.980469 250.820312 C 218.945312 250.921875 217.90625 251 216.867188 251.050781 C 215.828125 251.101562 214.785156 251.128906 213.746094 251.128906 C 212.703125 251.128906 211.664062 251.101562 210.625 251.050781 C 209.585938 251 208.546875 250.921875 207.511719 250.820312 C 206.472656 250.71875 205.441406 250.589844 204.410156 250.4375 C 203.378906 250.285156 202.355469 250.109375 201.332031 249.90625 C 200.3125 249.703125 199.296875 249.472656 198.285156 249.21875 C 197.277344 248.96875 196.273438 248.691406 195.277344 248.386719 C 194.28125 248.085938 193.292969 247.757812 192.3125 247.40625 C 191.332031 247.058594 190.359375 246.683594 189.398438 246.285156 C 188.4375 245.886719 187.484375 245.464844 186.542969 245.019531 C 185.601562 244.574219 184.671875 244.105469 183.753906 243.613281 C 182.835938 243.125 181.929688 242.609375 181.039062 242.074219 C 180.144531 241.539062 179.265625 240.984375 178.398438 240.40625 C 177.535156 239.828125 176.683594 239.226562 175.847656 238.605469 C 175.011719 237.988281 174.191406 237.347656 173.386719 236.6875 C 172.578125 236.023438 171.792969 235.34375 171.019531 234.644531 C 170.25 233.945312 169.496094 233.230469 168.757812 232.492188 C 168.023438 231.757812 167.304688 231.003906 166.605469 230.230469 C 165.90625 229.460938 165.226562 228.671875 164.566406 227.867188 C 163.90625 227.0625 163.265625 226.242188 162.644531 225.40625 C 162.023438 224.570312 161.425781 223.71875 160.847656 222.851562 C 160.269531 221.984375 159.710938 221.105469 159.175781 220.214844 C 158.640625 219.320312 158.128906 218.414062 157.636719 217.496094 C 157.144531 216.578125 156.679688 215.648438 156.234375 214.707031 C 155.789062 213.765625 155.367188 212.816406 154.96875 211.851562 C 154.570312 210.890625 154.195312 209.917969 153.84375 208.9375 C 153.492188 207.957031 153.167969 206.96875 152.863281 205.972656 C 152.5625 204.976562 152.285156 203.972656 152.03125 202.964844 C 151.777344 201.953125 151.550781 200.9375 151.347656 199.917969 C 151.144531 198.894531 150.964844 197.871094 150.8125 196.839844 C 150.660156 195.8125 150.53125 194.777344 150.429688 193.742188 C 150.328125 192.707031 150.253906 191.667969 150.203125 190.628906 C 150.148438 189.585938 150.125 188.546875 150.125 187.503906 C 150.125 186.464844 150.148438 185.425781 150.203125 184.382812 C 150.253906 183.34375 150.328125 182.304688 150.429688 181.269531 C 150.53125 180.234375 150.660156 179.199219 150.8125 178.171875 C 150.964844 177.140625 151.144531 176.113281 151.347656 175.09375 C 151.550781 174.074219 151.777344 173.058594 152.03125 172.046875 C 152.285156 171.035156 152.5625 170.035156 152.863281 169.039062 C 153.167969 168.042969 153.492188 167.054688 153.84375 166.074219 C 154.195312 165.09375 154.570312 164.121094 154.96875 163.160156 C 155.367188 162.195312 155.789062 161.246094 156.234375 160.304688 C 156.679688 159.363281 157.144531 158.433594 157.636719 157.515625 C 158.128906 156.597656 158.640625 155.691406 159.175781 154.796875 C 159.710938 153.90625 160.269531 153.027344 160.847656 152.160156 C 161.425781 151.292969 162.023438 150.441406 162.644531 149.605469 C 163.265625 148.769531 163.90625 147.949219 164.566406 147.144531 C 165.226562 146.339844 165.90625 145.550781 166.605469 144.78125 C 167.304688 144.007812 168.023438 143.253906 168.757812 142.519531 C 169.496094 141.78125 170.25 141.066406 171.019531 140.367188 C 171.792969 139.667969 172.578125 138.988281 173.386719 138.324219 C 174.191406 137.664062 175.011719 137.023438 175.847656 136.40625 C 176.683594 135.785156 177.535156 135.183594 178.398438 134.605469 C 179.265625 134.027344 180.144531 133.472656 181.039062 132.9375 C 181.929688 132.402344 182.835938 131.886719 183.753906 131.398438 C 184.671875 130.90625 185.601562 130.4375 186.542969 129.992188 C 187.484375 129.546875 188.4375 129.125 189.398438 128.726562 C 190.359375 128.328125 191.332031 127.953125 192.3125 127.605469 C 193.292969 127.253906 194.28125 126.925781 195.277344 126.625 C 196.273438 126.320312 197.277344 126.042969 198.285156 125.792969 C 199.296875 125.539062 200.3125 125.308594 201.332031 125.105469 C 202.355469 124.902344 203.378906 124.726562 204.410156 124.574219 C 205.441406 124.421875 206.472656 124.292969 207.511719 124.191406 C 208.546875 124.089844 209.585938 124.011719 210.625 123.960938 C 211.664062 123.910156 212.703125 123.882812 213.746094 123.882812 C 214.785156 123.882812 215.828125 123.910156 216.867188 123.960938 C 217.90625 124.011719 218.945312 124.089844 219.980469 124.191406 C 221.019531 124.292969 222.050781 124.421875 223.082031 124.574219 C 224.109375 124.726562 225.136719 124.902344 226.15625 125.105469 C 227.179688 125.308594 228.195312 125.539062 229.203125 125.792969 C 230.214844 126.042969 231.21875 126.320312 232.214844 126.625 C 233.210938 126.925781 234.199219 127.253906 235.179688 127.605469 C 236.160156 127.953125 237.128906 128.328125 238.09375 128.726562 C 239.054688 129.125 240.007812 129.546875 240.949219 129.992188 C 241.886719 130.4375 242.820312 130.90625 243.738281 131.398438 C 244.65625 131.886719 245.5625 132.402344 246.453125 132.9375 C 247.347656 133.472656 248.226562 134.027344 249.09375 134.605469 C 249.957031 135.183594 250.808594 135.785156 251.644531 136.40625 C 252.480469 137.023438 253.300781 137.664062 254.105469 138.324219 C 254.910156 138.988281 255.699219 139.667969 256.472656 140.367188 C 257.242188 141.066406 257.996094 141.78125 258.734375 142.519531 C 259.46875 143.253906 260.1875 144.007812 260.886719 144.78125 C 261.585938 145.550781 262.265625 146.339844 262.925781 147.144531 C 263.585938 147.949219 264.226562 148.769531 264.847656 149.605469 C 265.46875 150.441406 266.066406 151.292969 266.644531 152.160156 C 267.222656 153.027344 267.78125 153.90625 268.316406 154.796875 C 268.851562 155.691406 269.363281 156.597656 269.855469 157.515625 C 270.34375 158.433594 270.8125 159.363281 271.257812 160.304688 C 271.703125 161.246094 272.125 162.195312 272.523438 163.160156 C 272.921875 164.121094 273.296875 165.09375 273.648438 166.074219 C 274 167.054688 274.324219 168.042969 274.628906 169.039062 C 274.929688 170.035156 275.207031 171.035156 275.460938 172.046875 C 275.714844 173.058594 275.941406 174.074219 276.144531 175.09375 C 276.347656 176.113281 276.527344 177.140625 276.679688 178.171875 C 276.832031 179.199219 276.957031 180.234375 277.0625 181.269531 C 277.164062 182.304688 277.238281 183.34375 277.289062 184.382812 C 277.339844 185.425781 277.367188 186.464844 277.367188 187.503906 Z M 277.367188 187.503906 " fill-opacity="1" fill-rule="nonzero"/><g clip-path="url(#2bf055879f)"><path fill="#f4f6e7" d="M 89.914062 270.089844 C 90.03125 270.082031 90.144531 270.085938 90.253906 270.09375 C 91.46875 270.230469 91.128906 270.792969 92.289062 271.402344 C 93.453125 272.007812 92.957031 272.285156 92.746094 273.128906 C 92.53125 273.972656 93.398438 275.78125 94.191406 276.390625 C 94.800781 276.855469 94.480469 278.886719 94.296875 279.828125 C 90.988281 278.070312 88.734375 274.589844 88.734375 270.574219 C 88.734375 270.519531 88.742188 270.46875 88.742188 270.414062 C 89.058594 270.273438 89.476562 270.121094 89.914062 270.089844 Z M 99.210938 260.097656 C 100.566406 260.097656 101.863281 260.355469 103.050781 260.824219 C 103.035156 260.882812 103.007812 260.996094 102.953125 261.285156 C 102.765625 262.277344 103.300781 262.691406 103.71875 262.277344 C 104.140625 261.863281 104.890625 262.234375 104.488281 262.773438 C 104.089844 263.3125 103.292969 262.449219 103.691406 263.53125 C 104.09375 264.878906 102.621094 263.820312 102.464844 264.992188 C 102.335938 265.945312 103.375 265.925781 104 265.5625 C 104.613281 265.195312 104.554688 264.652344 105.710938 264.558594 C 106.734375 264.480469 108.453125 266.078125 107.828125 266.585938 C 107.371094 266.964844 106.933594 266.792969 106.542969 266.484375 C 106.402344 266.375 106.320312 265.914062 105.914062 265.71875 C 105.300781 265.425781 104.402344 266.054688 103.441406 266.464844 C 102.480469 266.867188 100.808594 268.085938 101.660156 270.300781 C 102.175781 271.640625 102.78125 272.097656 103.773438 271.933594 C 104.257812 271.851562 105.070312 271.386719 105.585938 271.761719 C 106.492188 272.421875 107.253906 274.023438 106.8125 275.273438 C 106.40625 276.421875 106.75 277.242188 106.976562 277.613281 C 105.058594 279.726562 102.292969 281.050781 99.210938 281.050781 C 98.234375 281.050781 97.289062 280.914062 96.390625 280.664062 C 96.964844 280.164062 98.507812 278.734375 98.765625 277.535156 C 98.960938 276.644531 99.8125 277.671875 100.550781 275.589844 C 101.734375 272.242188 99.570312 274.042969 98.71875 272.960938 C 97.90625 271.246094 97.375 272.101562 96.609375 271.363281 C 95.84375 270.621094 94.878906 270.691406 94.097656 271.007812 C 93.316406 271.328125 92.925781 270.851562 92.753906 270.28125 C 92.492188 269.402344 91.710938 269.183594 90.667969 269.179688 C 89.972656 269.175781 90.953125 267.960938 91.289062 267.648438 C 91.761719 267.207031 92.84375 267.105469 93.027344 267.496094 C 93.214844 267.890625 93.664062 267.511719 93.554688 267.054688 C 93.445312 266.597656 93.75 266.472656 94.0625 266.136719 C 94.371094 265.800781 94.789062 265.121094 94.835938 264.535156 C 94.886719 263.945312 95.578125 264.226562 96.148438 264.414062 C 96.722656 264.601562 97.226562 263.886719 96.863281 263.550781 C 96.554688 263.269531 96.699219 263.25 97.304688 262.992188 C 97.902344 262.730469 97.664062 262.054688 97.183594 261.71875 C 96.84375 261.484375 96.628906 260.828125 96.53125 260.445312 C 97.386719 260.21875 98.285156 260.097656 99.210938 260.097656 Z M 99.210938 258.859375 C 92.75 258.859375 87.5 264.113281 87.5 270.574219 C 87.5 277.035156 92.75 282.289062 99.210938 282.289062 C 105.671875 282.289062 110.925781 277.035156 110.925781 270.574219 C 110.925781 264.113281 105.671875 258.859375 99.210938 258.859375 Z M 99.210938 258.859375 " fill-opacity="1" fill-rule="nonzero"/></g></svg>