<svg xmlns="http://www.w3.org/2000/svg" xmlns:xlink="http://www.w3.org/1999/xlink" width="512" zoomAndPan="magnify" viewBox="0 0 384 383.999986" height="512" preserveAspectRatio="xMidYMid meet" version="1.0"><defs><clipPath id="e1758fe604"><path d="M 53.566406 38.398438 L 330.316406 38.398438 L 330.316406 345.898438 L 53.566406 345.898438 Z M 53.566406 38.398438 " clip-rule="nonzero"/></clipPath><clipPath id="3654d90870"><path d="M 89.597656 265.070312 L 113.597656 265.070312 L 113.597656 289.070312 L 89.597656 289.070312 Z M 89.597656 265.070312 " clip-rule="nonzero"/></clipPath></defs><rect x="-38.4" width="460.8" fill="#ffffff" y="-38.399999" height="460.799983" fill-opacity="1"/><rect x="-38.4" width="460.8" fill="#21c45d" y="-38.399999" height="460.799983" fill-opacity="1"/><g clip-path="url(#e1758fe604)"><path fill="#ffffff" d="M 298.039062 258.847656 L 296.847656 260 C 273.949219 282.035156 243.054688 295.195312 214.21875 295.195312 C 154.914062 295.195312 108.460938 249.3125 108.460938 190.734375 C 108.460938 132.390625 154.914062 86.691406 214.21875 86.691406 C 244.027344 86.691406 274.890625 100.789062 296.78125 124.398438 L 298.039062 125.757812 L 329.730469 86.261719 L 328.703125 85.25 C 298.9375 55.910156 255.820312 38.398438 213.363281 38.398438 C 169.910156 38.398438 129.621094 54.019531 99.917969 82.375 C 70.136719 110.800781 53.742188 149.425781 53.742188 191.148438 C 53.742188 233.304688 69.945312 272.347656 99.363281 301.089844 C 128.746094 329.804688 168.621094 345.609375 211.640625 345.609375 C 253.550781 345.609375 297.472656 326.980469 329.132812 295.769531 L 330.21875 294.699219 Z M 298.039062 258.847656 " fill-opacity="1" fill-rule="nonzero"/></g><path fill="#ffffff" d="M 270.671875 192.003906 C 270.671875 193.828125 270.582031 195.648438 270.402344 197.464844 C 270.222656 199.28125 269.957031 201.082031 269.601562 202.871094 C 269.246094 204.660156 268.800781 206.425781 268.273438 208.171875 C 267.742188 209.917969 267.128906 211.632812 266.429688 213.320312 C 265.734375 215.003906 264.953125 216.652344 264.09375 218.261719 C 263.234375 219.867188 262.296875 221.429688 261.285156 222.949219 C 260.269531 224.464844 259.183594 225.929688 258.027344 227.339844 C 256.871094 228.75 255.648438 230.097656 254.359375 231.386719 C 253.066406 232.679688 251.71875 233.902344 250.308594 235.058594 C 248.898438 236.214844 247.433594 237.300781 245.917969 238.316406 C 244.402344 239.328125 242.839844 240.265625 241.230469 241.125 C 239.621094 241.984375 237.972656 242.761719 236.289062 243.460938 C 234.601562 244.160156 232.886719 244.773438 231.140625 245.304688 C 229.394531 245.832031 227.628906 246.273438 225.839844 246.632812 C 224.050781 246.988281 222.25 247.253906 220.433594 247.433594 C 218.617188 247.613281 216.796875 247.699219 214.972656 247.699219 C 213.148438 247.699219 211.332031 247.613281 209.515625 247.433594 C 207.699219 247.253906 205.898438 246.988281 204.109375 246.628906 C 202.320312 246.273438 200.550781 245.832031 198.804688 245.304688 C 197.0625 244.773438 195.34375 244.160156 193.660156 243.460938 C 191.976562 242.761719 190.328125 241.984375 188.71875 241.125 C 187.109375 240.265625 185.546875 239.328125 184.03125 238.316406 C 182.515625 237.300781 181.050781 236.214844 179.640625 235.058594 C 178.230469 233.902344 176.882812 232.679688 175.589844 231.386719 C 174.300781 230.097656 173.078125 228.75 171.921875 227.339844 C 170.761719 225.929688 169.679688 224.464844 168.664062 222.949219 C 167.652344 221.429688 166.714844 219.867188 165.855469 218.261719 C 164.996094 216.652344 164.214844 215.003906 163.519531 213.320312 C 162.820312 211.632812 162.207031 209.917969 161.675781 208.171875 C 161.148438 206.425781 160.703125 204.660156 160.347656 202.871094 C 159.992188 201.082031 159.726562 199.28125 159.546875 197.464844 C 159.367188 195.648438 159.277344 193.828125 159.277344 192.003906 C 159.277344 190.179688 159.367188 188.359375 159.546875 186.546875 C 159.726562 184.730469 159.992188 182.929688 160.347656 181.140625 C 160.703125 179.351562 161.148438 177.582031 161.675781 175.835938 C 162.207031 174.089844 162.820312 172.375 163.519531 170.691406 C 164.214844 169.003906 164.996094 167.359375 165.855469 165.75 C 166.714844 164.140625 167.652344 162.578125 168.664062 161.0625 C 169.679688 159.546875 170.761719 158.082031 171.921875 156.671875 C 173.078125 155.261719 174.300781 153.910156 175.589844 152.621094 C 176.882812 151.332031 178.230469 150.109375 179.640625 148.949219 C 181.050781 147.792969 182.515625 146.707031 184.03125 145.695312 C 185.546875 144.683594 187.109375 143.746094 188.71875 142.886719 C 190.328125 142.023438 191.976562 141.246094 193.660156 140.546875 C 195.34375 139.851562 197.0625 139.238281 198.804688 138.707031 C 200.550781 138.175781 202.320312 137.734375 204.109375 137.378906 C 205.898438 137.023438 207.699219 136.753906 209.515625 136.578125 C 211.332031 136.398438 213.148438 136.308594 214.972656 136.308594 C 216.796875 136.308594 218.617188 136.398438 220.433594 136.578125 C 222.25 136.753906 224.050781 137.023438 225.839844 137.378906 C 227.628906 137.734375 229.394531 138.175781 231.140625 138.707031 C 232.886719 139.238281 234.601562 139.851562 236.289062 140.546875 C 237.972656 141.246094 239.621094 142.023438 241.230469 142.886719 C 242.839844 143.746094 244.402344 144.683594 245.917969 145.695312 C 247.433594 146.707031 248.898438 147.792969 250.308594 148.949219 C 251.71875 150.109375 253.066406 151.332031 254.359375 152.621094 C 255.648438 153.910156 256.871094 155.261719 258.027344 156.671875 C 259.183594 158.082031 260.269531 159.546875 261.285156 161.0625 C 262.296875 162.578125 263.234375 164.140625 264.09375 165.75 C 264.953125 167.359375 265.734375 169.003906 266.429688 170.691406 C 267.128906 172.375 267.742188 174.089844 268.273438 175.835938 C 268.800781 177.582031 269.246094 179.351562 269.601562 181.140625 C 269.957031 182.929688 270.222656 184.730469 270.402344 186.546875 C 270.582031 188.359375 270.671875 190.179688 270.671875 192.003906 Z M 270.671875 192.003906 " fill-opacity="1" fill-rule="nonzero"/><g clip-path="url(#3654d90870)"><path fill="#ffffff" d="M 92.070312 276.574219 C 92.191406 276.566406 92.308594 276.566406 92.421875 276.578125 C 93.664062 276.714844 93.316406 277.292969 94.503906 277.914062 C 95.695312 278.535156 95.1875 278.820312 94.972656 279.683594 C 94.753906 280.550781 95.636719 282.402344 96.453125 283.023438 C 97.074219 283.5 96.75 285.578125 96.558594 286.542969 C 93.171875 284.742188 90.867188 281.179688 90.867188 277.066406 C 90.867188 277.011719 90.871094 276.957031 90.871094 276.902344 C 91.195312 276.761719 91.625 276.605469 92.070312 276.574219 Z M 101.59375 266.339844 C 102.980469 266.339844 104.304688 266.605469 105.523438 267.082031 C 105.507812 267.144531 105.480469 267.257812 105.425781 267.554688 C 105.230469 268.574219 105.777344 268.996094 106.207031 268.570312 C 106.636719 268.148438 107.40625 268.527344 106.996094 269.082031 C 106.589844 269.632812 105.769531 268.75 106.179688 269.855469 C 106.589844 271.238281 105.082031 270.152344 104.921875 271.351562 C 104.792969 272.328125 105.855469 272.308594 106.496094 271.933594 C 107.125 271.5625 107.0625 271.003906 108.25 270.910156 C 109.296875 270.828125 111.054688 272.464844 110.417969 272.984375 C 109.949219 273.371094 109.5 273.199219 109.097656 272.882812 C 108.957031 272.765625 108.875 272.296875 108.453125 272.097656 C 107.828125 271.796875 106.90625 272.441406 105.921875 272.859375 C 104.9375 273.273438 103.226562 274.519531 104.101562 276.789062 C 104.625 278.160156 105.25 278.628906 106.265625 278.460938 C 106.761719 278.378906 107.59375 277.898438 108.121094 278.285156 C 109.046875 278.960938 109.828125 280.601562 109.375 281.882812 C 108.960938 283.058594 109.3125 283.898438 109.542969 284.277344 C 107.582031 286.441406 104.746094 287.796875 101.59375 287.796875 C 100.589844 287.796875 99.625 287.65625 98.707031 287.402344 C 99.292969 286.890625 100.871094 285.421875 101.132812 284.199219 C 101.335938 283.28125 102.210938 284.335938 102.964844 282.203125 C 104.175781 278.773438 101.957031 280.621094 101.085938 279.511719 C 100.257812 277.753906 99.710938 278.632812 98.925781 277.878906 C 98.140625 277.117188 97.15625 277.1875 96.355469 277.511719 C 95.554688 277.839844 95.15625 277.351562 94.980469 276.765625 C 94.710938 275.867188 93.910156 275.640625 92.84375 275.636719 C 92.132812 275.636719 93.136719 274.390625 93.480469 274.070312 C 93.964844 273.621094 95.070312 273.515625 95.261719 273.917969 C 95.449219 274.320312 95.910156 273.933594 95.800781 273.464844 C 95.6875 272.996094 96 272.871094 96.320312 272.523438 C 96.636719 272.179688 97.0625 271.484375 97.113281 270.882812 C 97.164062 270.28125 97.875 270.570312 98.457031 270.757812 C 99.042969 270.949219 99.5625 270.21875 99.1875 269.875 C 98.871094 269.585938 99.023438 269.570312 99.640625 269.300781 C 100.253906 269.035156 100.007812 268.34375 99.515625 268 C 99.167969 267.761719 98.949219 267.085938 98.847656 266.695312 C 99.722656 266.460938 100.644531 266.339844 101.59375 266.339844 Z M 101.59375 265.074219 C 94.976562 265.074219 89.597656 270.453125 89.597656 277.066406 C 89.597656 283.683594 94.976562 289.0625 101.59375 289.0625 C 108.210938 289.0625 113.585938 283.683594 113.585938 277.066406 C 113.585938 270.453125 108.210938 265.074219 101.59375 265.074219 Z M 101.59375 265.074219 " fill-opacity="1" fill-rule="nonzero"/></g></svg>