<svg xmlns="http://www.w3.org/2000/svg" xmlns:xlink="http://www.w3.org/1999/xlink" width="192" zoomAndPan="magnify" viewBox="0 0 144 143.999998" height="192" preserveAspectRatio="xMidYMid meet" version="1.0"><defs><clipPath id="8fe3bc96f0"><path d="M 11.277344 4.625 L 132.777344 4.625 L 132.777344 139.625 L 11.277344 139.625 Z M 11.277344 4.625 " clip-rule="nonzero"/></clipPath><clipPath id="121049270b"><path d="M 33.601562 99.402344 L 42.601562 99.402344 L 42.601562 108.402344 L 33.601562 108.402344 Z M 33.601562 99.402344 " clip-rule="nonzero"/></clipPath></defs><rect x="-14.4" width="172.8" fill="#ffffff" y="-14.4" height="172.799997" fill-opacity="1"/><rect x="-14.4" width="172.8" fill="#21c45d" y="-14.4" height="172.799997" fill-opacity="1"/><g clip-path="url(#8fe3bc96f0)"><path fill="#ffffff" d="M 118.511719 101.320312 L 117.988281 101.824219 C 107.945312 111.488281 94.394531 117.261719 81.746094 117.261719 C 55.734375 117.261719 35.359375 97.136719 35.359375 71.441406 C 35.359375 45.851562 55.734375 25.808594 81.746094 25.808594 C 94.820312 25.808594 108.359375 31.988281 117.960938 42.347656 L 118.511719 42.941406 L 132.414062 25.617188 L 131.960938 25.171875 C 118.90625 12.304688 99.992188 4.625 81.371094 4.625 C 62.3125 4.625 44.640625 11.476562 31.609375 23.914062 C 18.550781 36.382812 11.359375 53.324219 11.359375 71.625 C 11.359375 90.113281 18.464844 107.238281 31.367188 119.847656 C 44.257812 132.441406 61.746094 139.375 80.613281 139.375 C 98.996094 139.375 118.261719 131.203125 132.152344 117.511719 L 132.625 117.042969 Z M 118.511719 101.320312 " fill-opacity="1" fill-rule="nonzero"/></g><path fill="#ffffff" d="M 106.507812 72 C 106.507812 72.800781 106.46875 73.597656 106.390625 74.394531 C 106.3125 75.191406 106.195312 75.980469 106.039062 76.765625 C 105.882812 77.550781 105.6875 78.324219 105.457031 79.089844 C 105.222656 79.855469 104.953125 80.609375 104.648438 81.347656 C 104.339844 82.085938 104 82.808594 103.621094 83.515625 C 103.246094 84.222656 102.835938 84.90625 102.390625 85.570312 C 101.945312 86.238281 101.46875 86.878906 100.960938 87.496094 C 100.453125 88.117188 99.917969 88.707031 99.351562 89.273438 C 98.785156 89.839844 98.195312 90.375 97.574219 90.882812 C 96.957031 91.390625 96.316406 91.867188 95.648438 92.3125 C 94.984375 92.757812 94.300781 93.167969 93.59375 93.542969 C 92.886719 93.921875 92.164062 94.261719 91.425781 94.570312 C 90.6875 94.875 89.933594 95.144531 89.167969 95.375 C 88.402344 95.609375 87.628906 95.804688 86.84375 95.960938 C 86.058594 96.117188 85.269531 96.234375 84.472656 96.3125 C 83.675781 96.390625 82.878906 96.429688 82.078125 96.429688 C 81.277344 96.429688 80.480469 96.390625 79.683594 96.3125 C 78.886719 96.234375 78.097656 96.117188 77.3125 95.960938 C 76.527344 95.804688 75.753906 95.609375 74.988281 95.375 C 74.222656 95.144531 73.46875 94.875 72.730469 94.570312 C 71.988281 94.261719 71.265625 93.921875 70.5625 93.542969 C 69.855469 93.167969 69.171875 92.757812 68.503906 92.3125 C 67.839844 91.867188 67.199219 91.390625 66.578125 90.882812 C 65.960938 90.375 65.371094 89.839844 64.804688 89.273438 C 64.238281 88.707031 63.703125 88.117188 63.195312 87.496094 C 62.6875 86.878906 62.210938 86.238281 61.765625 85.570312 C 61.320312 84.90625 60.910156 84.222656 60.53125 83.515625 C 60.15625 82.808594 59.8125 82.085938 59.507812 81.347656 C 59.203125 80.609375 58.933594 79.855469 58.699219 79.089844 C 58.46875 78.324219 58.273438 77.550781 58.117188 76.765625 C 57.960938 75.980469 57.84375 75.191406 57.765625 74.394531 C 57.6875 73.597656 57.648438 72.800781 57.648438 72 C 57.648438 71.199219 57.6875 70.402344 57.765625 69.605469 C 57.84375 68.808594 57.960938 68.019531 58.117188 67.234375 C 58.273438 66.449219 58.46875 65.671875 58.699219 64.90625 C 58.933594 64.140625 59.203125 63.390625 59.507812 62.652344 C 59.8125 61.910156 60.15625 61.1875 60.53125 60.484375 C 60.910156 59.777344 61.320312 59.09375 61.765625 58.425781 C 62.210938 57.761719 62.6875 57.121094 63.195312 56.5 C 63.703125 55.882812 64.238281 55.289062 64.804688 54.726562 C 65.371094 54.160156 65.960938 53.621094 66.578125 53.113281 C 67.199219 52.609375 67.839844 52.132812 68.503906 51.6875 C 69.171875 51.242188 69.855469 50.832031 70.5625 50.453125 C 71.265625 50.078125 71.988281 49.734375 72.730469 49.429688 C 73.46875 49.125 74.222656 48.855469 74.988281 48.621094 C 75.753906 48.390625 76.527344 48.195312 77.3125 48.039062 C 78.097656 47.882812 78.886719 47.765625 79.683594 47.6875 C 80.480469 47.609375 81.277344 47.570312 82.078125 47.570312 C 82.878906 47.570312 83.675781 47.609375 84.472656 47.6875 C 85.269531 47.765625 86.058594 47.882812 86.84375 48.039062 C 87.628906 48.195312 88.402344 48.390625 89.167969 48.621094 C 89.933594 48.855469 90.6875 49.125 91.425781 49.429688 C 92.164062 49.734375 92.886719 50.078125 93.59375 50.453125 C 94.300781 50.832031 94.984375 51.242188 95.648438 51.6875 C 96.316406 52.132812 96.957031 52.609375 97.574219 53.113281 C 98.195312 53.621094 98.785156 54.160156 99.351562 54.726562 C 99.917969 55.289062 100.453125 55.882812 100.960938 56.5 C 101.46875 57.121094 101.945312 57.761719 102.390625 58.425781 C 102.835938 59.09375 103.246094 59.777344 103.621094 60.484375 C 104 61.1875 104.339844 61.910156 104.648438 62.652344 C 104.953125 63.390625 105.222656 64.140625 105.457031 64.90625 C 105.6875 65.671875 105.882812 66.449219 106.039062 67.234375 C 106.195312 68.019531 106.3125 68.808594 106.390625 69.605469 C 106.46875 70.402344 106.507812 71.199219 106.507812 72 Z M 106.507812 72 " fill-opacity="1" fill-rule="nonzero"/><g clip-path="url(#121049270b)"><path fill="#ffffff" d="M 34.527344 103.710938 C 34.570312 103.707031 34.613281 103.707031 34.65625 103.714844 C 35.125 103.765625 34.992188 103.980469 35.4375 104.214844 C 35.882812 104.445312 35.695312 104.554688 35.613281 104.875 C 35.53125 105.203125 35.863281 105.894531 36.167969 106.128906 C 36.402344 106.308594 36.277344 107.085938 36.207031 107.449219 C 34.9375 106.773438 34.074219 105.4375 34.074219 103.898438 C 34.074219 103.875 34.074219 103.855469 34.078125 103.835938 C 34.199219 103.78125 34.359375 103.722656 34.527344 103.710938 Z M 38.09375 99.875 C 38.613281 99.875 39.109375 99.976562 39.566406 100.15625 C 39.5625 100.179688 39.550781 100.222656 39.527344 100.332031 C 39.457031 100.714844 39.664062 100.871094 39.824219 100.714844 C 39.984375 100.554688 40.273438 100.695312 40.117188 100.902344 C 39.964844 101.109375 39.660156 100.78125 39.8125 101.195312 C 39.964844 101.710938 39.402344 101.304688 39.339844 101.753906 C 39.292969 102.121094 39.691406 102.113281 39.929688 101.972656 C 40.167969 101.832031 40.144531 101.625 40.585938 101.589844 C 40.980469 101.558594 41.640625 102.171875 41.398438 102.367188 C 41.222656 102.511719 41.054688 102.445312 40.90625 102.328125 C 40.851562 102.285156 40.820312 102.109375 40.664062 102.035156 C 40.429688 101.921875 40.085938 102.164062 39.714844 102.320312 C 39.347656 102.476562 38.707031 102.941406 39.035156 103.792969 C 39.230469 104.304688 39.464844 104.480469 39.84375 104.417969 C 40.03125 104.386719 40.34375 104.207031 40.539062 104.351562 C 40.886719 104.605469 41.179688 105.21875 41.011719 105.699219 C 40.855469 106.140625 40.984375 106.457031 41.074219 106.597656 C 40.335938 107.410156 39.277344 107.917969 38.09375 107.917969 C 37.71875 107.917969 37.355469 107.863281 37.011719 107.769531 C 37.230469 107.578125 37.824219 107.027344 37.921875 106.566406 C 37.996094 106.226562 38.324219 106.621094 38.609375 105.820312 C 39.0625 104.535156 38.230469 105.230469 37.90625 104.8125 C 37.59375 104.152344 37.386719 104.484375 37.09375 104.199219 C 36.800781 103.914062 36.429688 103.941406 36.132812 104.0625 C 35.832031 104.183594 35.679688 104.003906 35.617188 103.785156 C 35.515625 103.445312 35.214844 103.363281 34.816406 103.359375 C 34.550781 103.359375 34.925781 102.894531 35.054688 102.773438 C 35.234375 102.605469 35.648438 102.566406 35.722656 102.714844 C 35.792969 102.867188 35.964844 102.722656 35.921875 102.546875 C 35.878906 102.371094 35.996094 102.324219 36.117188 102.195312 C 36.238281 102.066406 36.394531 101.804688 36.414062 101.578125 C 36.433594 101.351562 36.699219 101.460938 36.917969 101.53125 C 37.136719 101.605469 37.332031 101.332031 37.191406 101.203125 C 37.074219 101.09375 37.128906 101.085938 37.363281 100.988281 C 37.589844 100.886719 37.5 100.628906 37.316406 100.5 C 37.1875 100.410156 37.101562 100.15625 37.066406 100.011719 C 37.394531 99.921875 37.738281 99.875 38.09375 99.875 Z M 38.09375 99.402344 C 35.613281 99.402344 33.601562 101.417969 33.601562 103.898438 C 33.601562 106.375 35.613281 108.390625 38.09375 108.390625 C 40.574219 108.390625 42.589844 106.375 42.589844 103.898438 C 42.589844 101.417969 40.574219 99.402344 38.09375 99.402344 Z M 38.09375 99.402344 " fill-opacity="1" fill-rule="nonzero"/></g></svg>