<svg xmlns="http://www.w3.org/2000/svg" xmlns:xlink="http://www.w3.org/1999/xlink" width="192" zoomAndPan="magnify" viewBox="0 0 144 143.999998" height="192" preserveAspectRatio="xMidYMid meet" version="1.0"><defs><clipPath id="8497c2b9f5"><path d="M 20.089844 14.398438 L 123.589844 14.398438 L 123.589844 129.898438 L 20.089844 129.898438 Z M 20.089844 14.398438 " clip-rule="nonzero"/></clipPath><clipPath id="73075d05b6"><path d="M 33.601562 99.402344 L 42.601562 99.402344 L 42.601562 108.402344 L 33.601562 108.402344 Z M 33.601562 99.402344 " clip-rule="nonzero"/></clipPath></defs><rect x="-14.4" width="172.8" fill="#ffffff" y="-14.4" height="172.799997" fill-opacity="1"/><rect x="-14.4" width="172.8" fill="#21c45d" y="-14.4" height="172.799997" fill-opacity="1"/><g clip-path="url(#8497c2b9f5)"><path fill="#ffffff" d="M 111.761719 97.066406 L 111.316406 97.496094 C 102.726562 105.761719 91.144531 110.695312 80.328125 110.695312 C 58.089844 110.695312 40.671875 93.488281 40.671875 71.523438 C 40.671875 49.644531 58.089844 32.507812 80.328125 32.507812 C 91.507812 32.507812 103.082031 37.792969 111.289062 46.648438 L 111.761719 47.15625 L 123.644531 32.347656 L 123.261719 31.96875 C 112.097656 20.964844 95.929688 14.398438 80.007812 14.398438 C 63.714844 14.398438 48.605469 20.257812 37.46875 30.890625 C 26.300781 41.550781 20.152344 56.035156 20.152344 71.679688 C 20.152344 87.488281 26.226562 102.128906 37.257812 112.90625 C 48.277344 123.675781 63.230469 129.601562 79.363281 129.601562 C 95.078125 129.601562 111.550781 122.613281 123.421875 110.910156 L 123.828125 110.511719 Z M 111.761719 97.066406 " fill-opacity="1" fill-rule="nonzero"/></g><path fill="#ffffff" d="M 101.5 72 C 101.5 72.683594 101.464844 73.367188 101.398438 74.046875 C 101.332031 74.726562 101.230469 75.402344 101.097656 76.074219 C 100.964844 76.746094 100.796875 77.410156 100.597656 78.0625 C 100.402344 78.71875 100.171875 79.359375 99.910156 79.992188 C 99.648438 80.625 99.355469 81.242188 99.03125 81.847656 C 98.710938 82.449219 98.359375 83.035156 97.980469 83.605469 C 97.597656 84.171875 97.191406 84.722656 96.757812 85.25 C 96.324219 85.777344 95.863281 86.285156 95.382812 86.769531 C 94.898438 87.253906 94.390625 87.710938 93.863281 88.144531 C 93.332031 88.578125 92.785156 88.984375 92.214844 89.367188 C 91.648438 89.746094 91.0625 90.097656 90.457031 90.417969 C 89.855469 90.742188 89.238281 91.035156 88.605469 91.296875 C 87.972656 91.558594 87.332031 91.789062 86.675781 91.988281 C 86.019531 92.183594 85.359375 92.351562 84.6875 92.484375 C 84.015625 92.617188 83.339844 92.71875 82.660156 92.785156 C 81.980469 92.851562 81.296875 92.886719 80.613281 92.886719 C 79.929688 92.886719 79.246094 92.851562 78.566406 92.785156 C 77.886719 92.71875 77.210938 92.617188 76.539062 92.484375 C 75.867188 92.351562 75.203125 92.183594 74.550781 91.988281 C 73.894531 91.789062 73.253906 91.558594 72.621094 91.296875 C 71.988281 91.035156 71.371094 90.742188 70.765625 90.417969 C 70.164062 90.097656 69.578125 89.746094 69.007812 89.367188 C 68.441406 88.984375 67.890625 88.578125 67.363281 88.144531 C 66.835938 87.710938 66.328125 87.253906 65.84375 86.769531 C 65.359375 86.285156 64.902344 85.777344 64.46875 85.25 C 64.035156 84.722656 63.628906 84.171875 63.246094 83.605469 C 62.867188 83.035156 62.515625 82.449219 62.195312 81.847656 C 61.871094 81.242188 61.578125 80.625 61.316406 79.992188 C 61.054688 79.359375 60.824219 78.71875 60.625 78.0625 C 60.429688 77.410156 60.261719 76.746094 60.128906 76.074219 C 59.996094 75.402344 59.894531 74.726562 59.828125 74.046875 C 59.761719 73.367188 59.726562 72.683594 59.726562 72 C 59.726562 71.316406 59.761719 70.632812 59.828125 69.953125 C 59.894531 69.273438 59.996094 68.597656 60.128906 67.925781 C 60.261719 67.253906 60.429688 66.59375 60.625 65.9375 C 60.824219 65.28125 61.054688 64.640625 61.316406 64.007812 C 61.578125 63.375 61.871094 62.757812 62.195312 62.15625 C 62.515625 61.550781 62.867188 60.964844 63.246094 60.398438 C 63.628906 59.828125 64.035156 59.28125 64.46875 58.75 C 64.902344 58.222656 65.359375 57.714844 65.84375 57.230469 C 66.328125 56.75 66.835938 56.289062 67.363281 55.855469 C 67.890625 55.421875 68.441406 55.015625 69.007812 54.632812 C 69.578125 54.253906 70.164062 53.902344 70.765625 53.582031 C 71.371094 53.257812 71.988281 52.964844 72.621094 52.703125 C 73.253906 52.441406 73.894531 52.210938 74.550781 52.015625 C 75.203125 51.816406 75.867188 51.648438 76.539062 51.515625 C 77.210938 51.382812 77.886719 51.28125 78.566406 51.214844 C 79.246094 51.148438 79.929688 51.113281 80.613281 51.113281 C 81.296875 51.113281 81.980469 51.148438 82.660156 51.214844 C 83.339844 51.28125 84.015625 51.382812 84.6875 51.515625 C 85.359375 51.648438 86.019531 51.816406 86.675781 52.015625 C 87.332031 52.210938 87.972656 52.441406 88.605469 52.703125 C 89.238281 52.964844 89.855469 53.257812 90.457031 53.582031 C 91.0625 53.902344 91.648438 54.253906 92.214844 54.632812 C 92.785156 55.015625 93.332031 55.421875 93.863281 55.855469 C 94.390625 56.289062 94.898438 56.75 95.382812 57.230469 C 95.863281 57.714844 96.324219 58.222656 96.757812 58.75 C 97.191406 59.28125 97.597656 59.828125 97.980469 60.398438 C 98.359375 60.964844 98.710938 61.550781 99.03125 62.15625 C 99.355469 62.757812 99.648438 63.375 99.910156 64.007812 C 100.171875 64.640625 100.402344 65.28125 100.597656 65.9375 C 100.796875 66.59375 100.964844 67.253906 101.097656 67.925781 C 101.230469 68.597656 101.332031 69.273438 101.398438 69.953125 C 101.464844 70.632812 101.5 71.316406 101.5 72 Z M 101.5 72 " fill-opacity="1" fill-rule="nonzero"/><g clip-path="url(#73075d05b6)"><path fill="#ffffff" d="M 34.527344 103.710938 C 34.570312 103.707031 34.613281 103.707031 34.65625 103.714844 C 35.125 103.765625 34.992188 103.980469 35.4375 104.214844 C 35.882812 104.445312 35.695312 104.554688 35.613281 104.875 C 35.53125 105.203125 35.863281 105.894531 36.167969 106.128906 C 36.402344 106.308594 36.277344 107.085938 36.207031 107.449219 C 34.9375 106.773438 34.074219 105.4375 34.074219 103.898438 C 34.074219 103.875 34.074219 103.855469 34.078125 103.835938 C 34.199219 103.78125 34.359375 103.722656 34.527344 103.710938 Z M 38.09375 99.875 C 38.613281 99.875 39.109375 99.976562 39.566406 100.15625 C 39.5625 100.179688 39.550781 100.222656 39.527344 100.332031 C 39.457031 100.714844 39.664062 100.871094 39.824219 100.714844 C 39.984375 100.554688 40.273438 100.695312 40.117188 100.902344 C 39.964844 101.109375 39.660156 100.78125 39.8125 101.195312 C 39.964844 101.710938 39.402344 101.304688 39.339844 101.753906 C 39.292969 102.121094 39.691406 102.113281 39.929688 101.972656 C 40.167969 101.832031 40.144531 101.625 40.585938 101.589844 C 40.980469 101.558594 41.640625 102.171875 41.398438 102.367188 C 41.222656 102.511719 41.054688 102.445312 40.90625 102.328125 C 40.851562 102.285156 40.820312 102.109375 40.664062 102.035156 C 40.429688 101.921875 40.085938 102.164062 39.714844 102.320312 C 39.347656 102.476562 38.707031 102.941406 39.035156 103.792969 C 39.230469 104.304688 39.464844 104.480469 39.84375 104.417969 C 40.03125 104.386719 40.34375 104.207031 40.539062 104.351562 C 40.886719 104.605469 41.179688 105.21875 41.011719 105.699219 C 40.855469 106.140625 40.984375 106.457031 41.074219 106.597656 C 40.335938 107.410156 39.277344 107.917969 38.09375 107.917969 C 37.71875 107.917969 37.355469 107.863281 37.011719 107.769531 C 37.230469 107.578125 37.824219 107.027344 37.921875 106.566406 C 37.996094 106.226562 38.324219 106.621094 38.609375 105.820312 C 39.0625 104.535156 38.230469 105.230469 37.90625 104.8125 C 37.59375 104.152344 37.386719 104.484375 37.09375 104.199219 C 36.800781 103.914062 36.429688 103.941406 36.132812 104.0625 C 35.832031 104.183594 35.679688 104.003906 35.617188 103.785156 C 35.515625 103.445312 35.214844 103.363281 34.816406 103.359375 C 34.550781 103.359375 34.925781 102.894531 35.054688 102.773438 C 35.234375 102.605469 35.648438 102.566406 35.722656 102.714844 C 35.792969 102.867188 35.964844 102.722656 35.921875 102.546875 C 35.878906 102.371094 35.996094 102.324219 36.117188 102.195312 C 36.238281 102.066406 36.394531 101.804688 36.414062 101.578125 C 36.433594 101.351562 36.699219 101.460938 36.917969 101.53125 C 37.136719 101.605469 37.332031 101.332031 37.191406 101.203125 C 37.074219 101.09375 37.128906 101.085938 37.363281 100.988281 C 37.589844 100.886719 37.5 100.628906 37.316406 100.5 C 37.1875 100.410156 37.101562 100.15625 37.066406 100.011719 C 37.394531 99.921875 37.738281 99.875 38.09375 99.875 Z M 38.09375 99.402344 C 35.613281 99.402344 33.601562 101.417969 33.601562 103.898438 C 33.601562 106.375 35.613281 108.390625 38.09375 108.390625 C 40.574219 108.390625 42.589844 106.375 42.589844 103.898438 C 42.589844 101.417969 40.574219 99.402344 38.09375 99.402344 Z M 38.09375 99.402344 " fill-opacity="1" fill-rule="nonzero"/></g></svg>