<svg xmlns="http://www.w3.org/2000/svg" xmlns:xlink="http://www.w3.org/1999/xlink" width="512" zoomAndPan="magnify" viewBox="0 0 384 383.999986" height="512" preserveAspectRatio="xMidYMid meet" version="1.0"><defs><clipPath id="a2cf3ac0b9"><path d="M 30.074219 12.332031 L 354 12.332031 L 354 371.582031 L 30.074219 371.582031 Z M 30.074219 12.332031 " clip-rule="nonzero"/></clipPath><clipPath id="5d8b570525"><path d="M 89.597656 265.070312 L 113.597656 265.070312 L 113.597656 289.070312 L 89.597656 289.070312 Z M 89.597656 265.070312 " clip-rule="nonzero"/></clipPath></defs><rect x="-38.4" width="460.8" fill="#ffffff" y="-38.399999" height="460.799983" fill-opacity="1"/><rect x="-38.4" width="460.8" fill="#21c45d" y="-38.399999" height="460.799983" fill-opacity="1"/><g clip-path="url(#a2cf3ac0b9)"><path fill="#ffffff" d="M 316.042969 270.195312 L 314.644531 271.542969 C 287.859375 297.320312 251.726562 312.710938 217.996094 312.710938 C 148.625 312.710938 94.289062 259.039062 94.289062 190.519531 C 94.289062 122.277344 148.625 68.824219 217.996094 68.824219 C 252.859375 68.824219 288.960938 85.308594 314.570312 112.929688 L 316.042969 114.515625 L 353.109375 68.316406 L 351.90625 67.132812 C 317.09375 32.8125 266.65625 12.332031 216.996094 12.332031 C 166.164062 12.332031 119.039062 30.601562 84.292969 63.769531 C 49.460938 97.019531 30.28125 142.203125 30.28125 191.007812 C 30.28125 240.316406 49.234375 285.984375 83.644531 319.605469 C 118.015625 353.195312 164.660156 371.683594 214.976562 371.683594 C 264 371.683594 315.378906 349.890625 352.414062 313.386719 L 353.683594 312.132812 Z M 316.042969 270.195312 " fill-opacity="1" fill-rule="nonzero"/></g><path fill="#ffffff" d="M 284.027344 192.007812 C 284.027344 193.074219 284 194.140625 283.949219 195.203125 C 283.894531 196.269531 283.816406 197.332031 283.714844 198.394531 C 283.609375 199.453125 283.476562 200.511719 283.320312 201.566406 C 283.164062 202.621094 282.984375 203.671875 282.773438 204.71875 C 282.566406 205.761719 282.332031 206.804688 282.074219 207.835938 C 281.816406 208.871094 281.53125 209.898438 281.222656 210.917969 C 280.910156 211.941406 280.578125 212.953125 280.21875 213.957031 C 279.859375 214.960938 279.476562 215.953125 279.066406 216.9375 C 278.660156 217.925781 278.226562 218.898438 277.773438 219.863281 C 277.316406 220.828125 276.835938 221.777344 276.335938 222.71875 C 275.832031 223.660156 275.304688 224.585938 274.757812 225.5 C 274.210938 226.414062 273.640625 227.316406 273.046875 228.203125 C 272.453125 229.089844 271.839844 229.960938 271.207031 230.816406 C 270.570312 231.671875 269.914062 232.515625 269.238281 233.339844 C 268.5625 234.164062 267.867188 234.96875 267.148438 235.757812 C 266.433594 236.550781 265.699219 237.320312 264.945312 238.074219 C 264.191406 238.828125 263.417969 239.5625 262.628906 240.28125 C 261.839844 240.996094 261.03125 241.691406 260.207031 242.367188 C 259.382812 243.046875 258.542969 243.699219 257.6875 244.335938 C 256.832031 244.972656 255.960938 245.585938 255.074219 246.175781 C 254.1875 246.769531 253.285156 247.339844 252.371094 247.886719 C 251.457031 248.4375 250.527344 248.960938 249.589844 249.464844 C 248.648438 249.964844 247.695312 250.445312 246.734375 250.902344 C 245.769531 251.359375 244.792969 251.789062 243.808594 252.199219 C 242.824219 252.605469 241.828125 252.988281 240.824219 253.347656 C 239.820312 253.707031 238.808594 254.042969 237.789062 254.351562 C 236.769531 254.660156 235.742188 254.945312 234.707031 255.203125 C 233.671875 255.464844 232.632812 255.695312 231.585938 255.90625 C 230.542969 256.113281 229.492188 256.296875 228.4375 256.453125 C 227.382812 256.609375 226.324219 256.738281 225.261719 256.84375 C 224.203125 256.949219 223.140625 257.027344 222.074219 257.078125 C 221.007812 257.128906 219.945312 257.15625 218.878906 257.15625 C 217.8125 257.15625 216.746094 257.128906 215.679688 257.078125 C 214.617188 257.027344 213.554688 256.949219 212.492188 256.84375 C 211.429688 256.738281 210.375 256.609375 209.320312 256.453125 C 208.265625 256.296875 207.214844 256.113281 206.167969 255.90625 C 205.121094 255.695312 204.082031 255.464844 203.046875 255.203125 C 202.011719 254.945312 200.988281 254.660156 199.964844 254.351562 C 198.945312 254.042969 197.933594 253.707031 196.929688 253.347656 C 195.925781 252.988281 194.929688 252.605469 193.945312 252.199219 C 192.960938 251.789062 191.988281 251.359375 191.023438 250.902344 C 190.058594 250.445312 189.105469 249.964844 188.167969 249.464844 C 187.226562 248.960938 186.300781 248.4375 185.382812 247.886719 C 184.46875 247.339844 183.570312 246.769531 182.683594 246.175781 C 181.796875 245.585938 180.925781 244.972656 180.070312 244.335938 C 179.210938 243.699219 178.371094 243.046875 177.546875 242.367188 C 176.722656 241.691406 175.917969 240.996094 175.125 240.28125 C 174.335938 239.5625 173.566406 238.828125 172.8125 238.074219 C 172.058594 237.320312 171.320312 236.550781 170.605469 235.757812 C 169.890625 234.96875 169.195312 234.164062 168.515625 233.339844 C 167.839844 232.515625 167.183594 231.671875 166.550781 230.816406 C 165.914062 229.960938 165.300781 229.089844 164.707031 228.203125 C 164.117188 227.316406 163.546875 226.414062 162.996094 225.5 C 162.449219 224.585938 161.925781 223.660156 161.421875 222.71875 C 160.917969 221.777344 160.441406 220.828125 159.984375 219.863281 C 159.527344 218.898438 159.097656 217.925781 158.6875 216.9375 C 158.28125 215.953125 157.894531 214.960938 157.539062 213.957031 C 157.179688 212.953125 156.84375 211.941406 156.535156 210.917969 C 156.226562 209.898438 155.941406 208.871094 155.679688 207.835938 C 155.421875 206.804688 155.1875 205.761719 154.980469 204.71875 C 154.773438 203.671875 154.589844 202.621094 154.433594 201.566406 C 154.277344 200.511719 154.148438 199.453125 154.042969 198.394531 C 153.9375 197.332031 153.859375 196.269531 153.808594 195.203125 C 153.753906 194.140625 153.730469 193.074219 153.730469 192.007812 C 153.730469 190.941406 153.753906 189.875 153.808594 188.8125 C 153.859375 187.746094 153.9375 186.683594 154.042969 185.621094 C 154.148438 184.5625 154.277344 183.503906 154.433594 182.449219 C 154.589844 181.394531 154.773438 180.34375 154.980469 179.296875 C 155.1875 178.253906 155.421875 177.210938 155.679688 176.179688 C 155.941406 175.144531 156.226562 174.117188 156.535156 173.097656 C 156.84375 172.074219 157.179688 171.0625 157.539062 170.058594 C 157.894531 169.054688 158.28125 168.0625 158.6875 167.078125 C 159.097656 166.089844 159.527344 165.117188 159.984375 164.152344 C 160.441406 163.1875 160.917969 162.238281 161.421875 161.296875 C 161.925781 160.355469 162.449219 159.429688 162.996094 158.515625 C 163.546875 157.601562 164.117188 156.699219 164.707031 155.8125 C 165.300781 154.925781 165.914062 154.054688 166.550781 153.199219 C 167.183594 152.34375 167.839844 151.503906 168.515625 150.679688 C 169.195312 149.855469 169.890625 149.046875 170.605469 148.257812 C 171.320312 147.464844 172.058594 146.695312 172.8125 145.941406 C 173.566406 145.1875 174.335938 144.453125 175.125 143.734375 C 175.917969 143.019531 176.722656 142.324219 177.546875 141.648438 C 178.371094 140.972656 179.210938 140.316406 180.070312 139.679688 C 180.925781 139.042969 181.796875 138.429688 182.683594 137.839844 C 183.570312 137.246094 184.46875 136.675781 185.382812 136.128906 C 186.300781 135.578125 187.226562 135.054688 188.167969 134.550781 C 189.105469 134.050781 190.058594 133.570312 191.023438 133.113281 C 191.988281 132.65625 192.960938 132.226562 193.945312 131.816406 C 194.929688 131.410156 195.925781 131.027344 196.929688 130.667969 C 197.933594 130.308594 198.945312 129.972656 199.964844 129.664062 C 200.988281 129.355469 202.011719 129.070312 203.046875 128.8125 C 204.082031 128.550781 205.121094 128.320312 206.167969 128.109375 C 207.214844 127.902344 208.265625 127.71875 209.320312 127.5625 C 210.375 127.40625 211.429688 127.277344 212.492188 127.171875 C 213.554688 127.066406 214.617188 126.988281 215.679688 126.9375 C 216.746094 126.886719 217.8125 126.859375 218.878906 126.859375 C 219.945312 126.859375 221.007812 126.886719 222.074219 126.9375 C 223.140625 126.988281 224.203125 127.066406 225.261719 127.171875 C 226.324219 127.277344 227.382812 127.40625 228.4375 127.5625 C 229.492188 127.71875 230.542969 127.902344 231.585938 128.109375 C 232.632812 128.320312 233.671875 128.550781 234.707031 128.8125 C 235.742188 129.070312 236.769531 129.355469 237.789062 129.664062 C 238.808594 129.972656 239.820312 130.308594 240.824219 130.667969 C 241.828125 131.027344 242.824219 131.410156 243.808594 131.816406 C 244.792969 132.226562 245.769531 132.65625 246.734375 133.113281 C 247.695312 133.570312 248.648438 134.050781 249.589844 134.550781 C 250.527344 135.054688 251.457031 135.578125 252.371094 136.128906 C 253.285156 136.675781 254.1875 137.246094 255.074219 137.839844 C 255.960938 138.429688 256.832031 139.042969 257.6875 139.679688 C 258.542969 140.316406 259.382812 140.972656 260.207031 141.648438 C 261.03125 142.324219 261.839844 143.019531 262.628906 143.734375 C 263.417969 144.453125 264.191406 145.1875 264.945312 145.941406 C 265.699219 146.695312 266.433594 147.464844 267.148438 148.257812 C 267.867188 149.046875 268.5625 149.855469 269.238281 150.679688 C 269.914062 151.503906 270.570312 152.34375 271.207031 153.199219 C 271.839844 154.054688 272.453125 154.925781 273.046875 155.8125 C 273.640625 156.699219 274.210938 157.601562 274.757812 158.515625 C 275.304688 159.429688 275.832031 160.355469 276.335938 161.296875 C 276.835938 162.238281 277.316406 163.1875 277.773438 164.152344 C 278.226562 165.117188 278.660156 166.089844 279.066406 167.078125 C 279.476562 168.0625 279.859375 169.054688 280.21875 170.058594 C 280.578125 171.0625 280.910156 172.074219 281.222656 173.097656 C 281.53125 174.117188 281.816406 175.144531 282.074219 176.179688 C 282.332031 177.210938 282.566406 178.253906 282.773438 179.296875 C 282.984375 180.34375 283.164062 181.394531 283.320312 182.449219 C 283.476562 183.503906 283.609375 184.5625 283.714844 185.621094 C 283.816406 186.683594 283.894531 187.746094 283.949219 188.8125 C 284 189.875 284.027344 190.941406 284.027344 192.007812 Z M 284.027344 192.007812 " fill-opacity="1" fill-rule="nonzero"/><g clip-path="url(#5d8b570525)"><path fill="#ffffff" d="M 92.070312 276.574219 C 92.191406 276.566406 92.308594 276.566406 92.421875 276.578125 C 93.664062 276.714844 93.316406 277.292969 94.503906 277.914062 C 95.695312 278.535156 95.1875 278.820312 94.972656 279.683594 C 94.753906 280.550781 95.636719 282.402344 96.453125 283.023438 C 97.074219 283.5 96.75 285.578125 96.558594 286.542969 C 93.171875 284.742188 90.867188 281.179688 90.867188 277.066406 C 90.867188 277.011719 90.871094 276.957031 90.871094 276.902344 C 91.195312 276.761719 91.625 276.605469 92.070312 276.574219 Z M 101.59375 266.339844 C 102.980469 266.339844 104.304688 266.605469 105.523438 267.082031 C 105.507812 267.144531 105.480469 267.257812 105.425781 267.554688 C 105.230469 268.574219 105.777344 268.996094 106.207031 268.570312 C 106.636719 268.148438 107.40625 268.527344 106.996094 269.082031 C 106.589844 269.632812 105.769531 268.75 106.179688 269.855469 C 106.589844 271.238281 105.082031 270.152344 104.921875 271.351562 C 104.792969 272.328125 105.855469 272.308594 106.496094 271.933594 C 107.125 271.5625 107.0625 271.003906 108.25 270.910156 C 109.296875 270.828125 111.054688 272.464844 110.417969 272.984375 C 109.949219 273.371094 109.5 273.199219 109.097656 272.882812 C 108.957031 272.765625 108.875 272.296875 108.453125 272.097656 C 107.828125 271.796875 106.90625 272.441406 105.921875 272.859375 C 104.9375 273.273438 103.226562 274.519531 104.101562 276.789062 C 104.625 278.160156 105.25 278.628906 106.265625 278.460938 C 106.761719 278.378906 107.59375 277.898438 108.121094 278.285156 C 109.046875 278.960938 109.828125 280.601562 109.375 281.882812 C 108.960938 283.058594 109.3125 283.898438 109.542969 284.277344 C 107.582031 286.441406 104.746094 287.796875 101.59375 287.796875 C 100.589844 287.796875 99.625 287.65625 98.707031 287.402344 C 99.292969 286.890625 100.871094 285.421875 101.132812 284.199219 C 101.335938 283.28125 102.210938 284.335938 102.964844 282.203125 C 104.175781 278.773438 101.957031 280.621094 101.085938 279.511719 C 100.257812 277.753906 99.710938 278.632812 98.925781 277.878906 C 98.140625 277.117188 97.15625 277.1875 96.355469 277.511719 C 95.554688 277.839844 95.15625 277.351562 94.980469 276.765625 C 94.710938 275.867188 93.910156 275.640625 92.84375 275.636719 C 92.132812 275.636719 93.136719 274.390625 93.480469 274.070312 C 93.964844 273.621094 95.070312 273.515625 95.261719 273.917969 C 95.449219 274.320312 95.910156 273.933594 95.800781 273.464844 C 95.6875 272.996094 96 272.871094 96.320312 272.523438 C 96.636719 272.179688 97.0625 271.484375 97.113281 270.882812 C 97.164062 270.28125 97.875 270.570312 98.457031 270.757812 C 99.042969 270.949219 99.5625 270.21875 99.1875 269.875 C 98.871094 269.585938 99.023438 269.570312 99.640625 269.300781 C 100.253906 269.035156 100.007812 268.34375 99.515625 268 C 99.167969 267.761719 98.949219 267.085938 98.847656 266.695312 C 99.722656 266.460938 100.644531 266.339844 101.59375 266.339844 Z M 101.59375 265.074219 C 94.976562 265.074219 89.597656 270.453125 89.597656 277.066406 C 89.597656 283.683594 94.976562 289.0625 101.59375 289.0625 C 108.210938 289.0625 113.585938 283.683594 113.585938 277.066406 C 113.585938 270.453125 108.210938 265.074219 101.59375 265.074219 Z M 101.59375 265.074219 " fill-opacity="1" fill-rule="nonzero"/></g></svg>