<svg xmlns="http://www.w3.org/2000/svg" xmlns:xlink="http://www.w3.org/1999/xlink" width="200" zoomAndPan="magnify" viewBox="0 0 150 30.000001" height="40" preserveAspectRatio="xMidYMid meet" version="1.0"><defs><g/><clipPath id="59a85c0967"><path d="M 0.652344 0.253906 L 24.644531 0.253906 L 24.644531 26.816406 L 0.652344 26.816406 Z M 0.652344 0.253906 " clip-rule="nonzero"/></clipPath><clipPath id="42a02294af"><rect x="0" width="130" y="0" height="27"/></clipPath></defs><g transform="matrix(1, 0, 0, 1, 10, 1)"><g clip-path="url(#42a02294af)"><g fill="#ffffff" fill-opacity="1"><g transform="translate(24.826015, 19.941409)"><g><path d="M 8.703125 0.28125 C 7.179688 0.28125 5.8125 -0.0351562 4.59375 -0.671875 C 3.382812 -1.316406 2.429688 -2.207031 1.734375 -3.34375 C 1.046875 -4.488281 0.703125 -5.773438 0.703125 -7.203125 C 0.703125 -8.617188 1.046875 -9.894531 1.734375 -11.03125 C 2.429688 -12.175781 3.382812 -13.070312 4.59375 -13.71875 C 5.8125 -14.363281 7.179688 -14.6875 8.703125 -14.6875 C 10.222656 -14.6875 11.585938 -14.363281 12.796875 -13.71875 C 14.015625 -13.070312 14.96875 -12.175781 15.65625 -11.03125 C 16.351562 -9.894531 16.703125 -8.617188 16.703125 -7.203125 C 16.703125 -5.773438 16.351562 -4.488281 15.65625 -3.34375 C 14.96875 -2.207031 14.015625 -1.316406 12.796875 -0.671875 C 11.585938 -0.0351562 10.222656 0.28125 8.703125 0.28125 Z M 8.703125 -3.078125 C 9.421875 -3.078125 10.078125 -3.25 10.671875 -3.59375 C 11.265625 -3.9375 11.726562 -4.421875 12.0625 -5.046875 C 12.40625 -5.671875 12.578125 -6.390625 12.578125 -7.203125 C 12.578125 -8.003906 12.40625 -8.71875 12.0625 -9.34375 C 11.726562 -9.96875 11.265625 -10.453125 10.671875 -10.796875 C 10.078125 -11.140625 9.421875 -11.3125 8.703125 -11.3125 C 7.972656 -11.3125 7.3125 -11.140625 6.71875 -10.796875 C 6.132812 -10.453125 5.671875 -9.96875 5.328125 -9.34375 C 4.984375 -8.71875 4.8125 -8.003906 4.8125 -7.203125 C 4.8125 -6.390625 4.984375 -5.671875 5.328125 -5.046875 C 5.671875 -4.421875 6.132812 -3.9375 6.71875 -3.59375 C 7.3125 -3.25 7.972656 -3.078125 8.703125 -3.078125 Z M 8.703125 -3.078125 "/></g></g></g><g fill="#ffffff" fill-opacity="1"><g transform="translate(42.224109, 19.941409)"><g><path d="M 15.140625 -14.390625 L 15.140625 0 L 11.78125 0 L 5.421875 -7.671875 L 5.421875 0 L 1.4375 0 L 1.4375 -14.390625 L 4.796875 -14.390625 L 11.140625 -6.71875 L 11.140625 -14.390625 Z M 15.140625 -14.390625 "/></g></g></g><g fill="#ffffff" fill-opacity="1"><g transform="translate(58.799602, 19.941409)"><g><path d="M 4.5 -11.171875 L 0.078125 -11.171875 L 0.078125 -14.390625 L 12.96875 -14.390625 L 12.96875 -11.171875 L 8.578125 -11.171875 L 8.578125 0 L 4.5 0 Z M 4.5 -11.171875 "/></g></g></g><g fill="#ffffff" fill-opacity="1"><g transform="translate(71.138681, 19.941409)"><g><path d="M 11.078125 -2.796875 L 5 -2.796875 L 3.859375 0 L -0.28125 0 L 6.0625 -14.390625 L 10.078125 -14.390625 L 16.453125 0 L 12.21875 0 Z M 9.890625 -5.796875 L 8.046875 -10.40625 L 6.1875 -5.796875 Z M 9.890625 -5.796875 "/></g></g></g><g fill="#ffffff" fill-opacity="1"><g transform="translate(87.302862, 19.941409)"><g><path d="M 13.609375 -3.234375 L 13.609375 0 L 0.71875 0 L 0.71875 -2.546875 L 7.984375 -11.171875 L 0.90625 -11.171875 L 0.90625 -14.390625 L 13.296875 -14.390625 L 13.296875 -11.84375 L 6.046875 -3.234375 Z M 13.609375 -3.234375 "/></g></g></g><g fill="#ffffff" fill-opacity="1"><g transform="translate(101.266587, 19.941409)"><g><path d="M 13.609375 -3.234375 L 13.609375 0 L 0.71875 0 L 0.71875 -2.546875 L 7.984375 -11.171875 L 0.90625 -11.171875 L 0.90625 -14.390625 L 13.296875 -14.390625 L 13.296875 -11.84375 L 6.046875 -3.234375 Z M 13.609375 -3.234375 "/></g></g></g><g fill="#ffffff" fill-opacity="1"><g transform="translate(115.230312, 19.941409)"><g><path d="M 13 -3.140625 L 13 0 L 1.4375 0 L 1.4375 -14.390625 L 12.734375 -14.390625 L 12.734375 -11.25 L 5.46875 -11.25 L 5.46875 -8.828125 L 11.859375 -8.828125 L 11.859375 -5.78125 L 5.46875 -5.78125 L 5.46875 -3.140625 Z M 13 -3.140625 "/></g></g></g><g clip-path="url(#59a85c0967)"><path fill="#f4f6e7" d="M 21.757812 19.289062 L 21.65625 19.386719 C 19.679688 21.289062 17.011719 22.425781 14.519531 22.425781 C 9.402344 22.425781 5.390625 18.464844 5.390625 13.40625 C 5.390625 8.367188 9.402344 4.421875 14.519531 4.421875 C 17.09375 4.421875 19.757812 5.640625 21.648438 7.679688 L 21.757812 7.796875 L 24.496094 4.386719 L 24.40625 4.296875 C 21.835938 1.765625 18.113281 0.253906 14.449219 0.253906 C 10.695312 0.253906 7.21875 1.601562 4.652344 4.050781 C 2.082031 6.503906 0.664062 9.839844 0.664062 13.441406 C 0.664062 17.082031 2.066406 20.453125 4.605469 22.933594 C 7.140625 25.414062 10.585938 26.777344 14.296875 26.777344 C 17.917969 26.777344 21.710938 25.167969 24.441406 22.476562 L 24.535156 22.382812 Z M 21.757812 19.289062 " fill-opacity="1" fill-rule="nonzero"/></g><path fill="#f4f6e7" d="M 19.394531 13.515625 C 19.394531 13.832031 19.363281 14.144531 19.304688 14.453125 C 19.242188 14.765625 19.148438 15.066406 19.027344 15.355469 C 18.910156 15.648438 18.761719 15.925781 18.585938 16.1875 C 18.410156 16.449219 18.210938 16.691406 17.988281 16.917969 C 17.761719 17.140625 17.519531 17.339844 17.257812 17.515625 C 16.996094 17.691406 16.71875 17.839844 16.425781 17.957031 C 16.136719 18.078125 15.835938 18.171875 15.523438 18.234375 C 15.214844 18.292969 14.902344 18.324219 14.585938 18.324219 C 14.269531 18.324219 13.957031 18.292969 13.648438 18.234375 C 13.339844 18.171875 13.039062 18.078125 12.746094 17.957031 C 12.453125 17.839844 12.175781 17.691406 11.914062 17.515625 C 11.652344 17.339844 11.410156 17.140625 11.1875 16.917969 C 10.960938 16.691406 10.761719 16.449219 10.589844 16.1875 C 10.414062 15.925781 10.265625 15.648438 10.144531 15.355469 C 10.023438 15.066406 9.929688 14.765625 9.871094 14.453125 C 9.808594 14.144531 9.777344 13.832031 9.777344 13.515625 C 9.777344 13.199219 9.808594 12.886719 9.871094 12.578125 C 9.929688 12.269531 10.023438 11.96875 10.144531 11.675781 C 10.265625 11.382812 10.414062 11.105469 10.589844 10.84375 C 10.761719 10.582031 10.960938 10.339844 11.1875 10.117188 C 11.410156 9.890625 11.652344 9.691406 11.914062 9.519531 C 12.175781 9.34375 12.453125 9.195312 12.746094 9.074219 C 13.039062 8.953125 13.339844 8.859375 13.648438 8.800781 C 13.957031 8.738281 14.269531 8.707031 14.585938 8.707031 C 14.902344 8.707031 15.214844 8.738281 15.523438 8.800781 C 15.835938 8.859375 16.136719 8.953125 16.425781 9.074219 C 16.71875 9.195312 16.996094 9.34375 17.257812 9.519531 C 17.519531 9.691406 17.761719 9.890625 17.988281 10.117188 C 18.210938 10.339844 18.410156 10.582031 18.585938 10.84375 C 18.761719 11.105469 18.910156 11.382812 19.027344 11.675781 C 19.148438 11.96875 19.242188 12.269531 19.304688 12.578125 C 19.363281 12.886719 19.394531 13.199219 19.394531 13.515625 Z M 19.394531 13.515625 " fill-opacity="1" fill-rule="nonzero"/></g></g></svg>